<?xml version="1.0" encoding="UTF-8" standalone="no"?>
<!-- Created with Inkscape (http://www.inkscape.org/) -->

<svg
   width="90"
   height="135"
   viewBox="0 0 23.8125 35.71875"
   version="1.1"
   id="svg1"
   inkscape:version="1.4.2 (f4327f4, 2025-05-13)"
   sodipodi:docname="10-Diamond.svg"
   inkscape:export-filename="..\10-Spade.png"
   inkscape:export-xdpi="96"
   inkscape:export-ydpi="96"
   xmlns:inkscape="http://www.inkscape.org/namespaces/inkscape"
   xmlns:sodipodi="http://sodipodi.sourceforge.net/DTD/sodipodi-0.dtd"
   xmlns="http://www.w3.org/2000/svg"
   xmlns:svg="http://www.w3.org/2000/svg">
  <sodipodi:namedview
     id="namedview1"
     pagecolor="#ffffff"
     bordercolor="#000000"
     borderopacity="0.25"
     inkscape:showpageshadow="2"
     inkscape:pageopacity="0.0"
     inkscape:pagecheckerboard="0"
     inkscape:deskcolor="#d1d1d1"
     inkscape:document-units="px"
     inkscape:zoom="2.8284271"
     inkscape:cx="42.426407"
     inkscape:cy="68.412582"
     inkscape:window-width="1920"
     inkscape:window-height="1009"
     inkscape:window-x="1912"
     inkscape:window-y="-8"
     inkscape:window-maximized="1"
     inkscape:current-layer="layer2"
     inkscape:export-bgcolor="#ffffff00" />
  <defs
     id="defs1" />
  <g
     inkscape:groupmode="layer"
     id="layer2"
     inkscape:label="Background">
    <rect
       style="fill:#ffffff;stroke:#000000;stroke-width:0.783777;stroke-dasharray:none;stroke-opacity:1"
       id="rect1"
       width="23.028723"
       height="34.934975"
       x="0.39188856"
       y="0.39188856"
       rx="1.646103" />
  </g>
  <g
     inkscape:label="Layer 1"
     inkscape:groupmode="layer"
     id="layer1"
     transform="translate(-1,-1)">
    <path
       d="M 123.79798,22.081783 H 84.179358 V -160.33615 q -22.220881,24.97696 -51.331958,36.6903 v -43.925 q 16.53647,-6.71794 34.278724,-23.94343 17.742253,-17.39774 24.632449,-39.96314 h 32.039407 z"
       id="text1"
       style="font-weight:bold;font-stretch:condensed;font-size:352.778px;font-family:Arial;-inkscape-font-specification:'Arial, Bold Condensed';white-space:pre;inline-size:297.107;stroke-width:0.264583;fill:#ff0000;fill-opacity:1"
       transform="matrix(0.04385585,0,0,0.04400543,0.39870546,12.244597)"
       aria-label="1" />
    <path
       d="m 89.347004,-231.47742 q 30.144606,0 48.748136,28.76657 18.60353,28.59431 18.60353,100.25235 0,71.485777 -18.60353,100.2523438 -18.60353,28.5943122 -48.575881,28.5943122 -30.144606,0 -48.748134,-28.4220573 Q 22.167597,-30.455958 22.167597,-102.97527 q 0,-71.14127 18.603528,-99.73558 18.603528,-28.76657 48.575879,-28.76657 z m 0,40.13539 q -11.713332,0 -18.775783,15.50294 -6.890195,15.50294 -6.890195,73.38059 0,57.877641 6.890195,73.380581 7.062451,15.330685 18.775783,15.330685 11.885586,0 18.775786,-15.50294 6.89019,-15.50294 6.89019,-73.208326 0,-57.87765 -6.89019,-73.38059 -6.8902,-15.50294 -18.775786,-15.50294 z"
       id="text1-8"
       style="font-weight:bold;font-stretch:condensed;font-size:352.778px;font-family:Arial;-inkscape-font-specification:'Arial, Bold Condensed';white-space:pre;inline-size:297.107;stroke-width:0.264583;fill:#ff0000;fill-opacity:1"
       transform="matrix(0.04385585,0,0,0.04400543,5.6903724,12.244597)"
       aria-label="0" />
    <path
       inkscape:export-ydpi="95.969437"
       inkscape:export-xdpi="95.969437"
       inkscape:export-filename="D:\DAN\Documents\Projects\Playing Cards\test.png"
       inkscape:connector-curvature="0"
       id="path4884-1"
       d="M 18.4625,13.170834 24.01875,7.6145853 18.4625,2.0583333 12.90625,7.6145853 Z"
       style="fill:#ff0000;fill-opacity:1;stroke:none;stroke-width:0.196402" />
    <path
       inkscape:export-ydpi="95.969437"
       inkscape:export-xdpi="95.969437"
       inkscape:export-filename="D:\DAN\Documents\Projects\Playing Cards\test.png"
       inkscape:connector-curvature="0"
       id="path4884-1-5"
       d="M 12.90625,35.660417 21.6375,26.929169 12.90625,18.197917 4.175,26.929169 Z"
       style="fill:#ff0000;fill-opacity:1;stroke:none;stroke-width:0.308632" />
  </g>
</svg>
