<?xml version="1.0" encoding="UTF-8" standalone="no"?>
<!-- Created with Inkscape (http://www.inkscape.org/) -->

<svg
   width="90"
   height="135"
   viewBox="0 0 23.8125 35.71875"
   version="1.1"
   id="svg1"
   inkscape:version="1.4.2 (f4327f4, 2025-05-13)"
   sodipodi:docname="2-Heart.svg"
   inkscape:export-filename="2-club2.svg"
   inkscape:export-xdpi="96"
   inkscape:export-ydpi="96"
   xmlns:inkscape="http://www.inkscape.org/namespaces/inkscape"
   xmlns:sodipodi="http://sodipodi.sourceforge.net/DTD/sodipodi-0.dtd"
   xmlns="http://www.w3.org/2000/svg"
   xmlns:svg="http://www.w3.org/2000/svg">
  <sodipodi:namedview
     id="namedview1"
     pagecolor="#ffffff"
     bordercolor="#000000"
     borderopacity="0.25"
     inkscape:showpageshadow="2"
     inkscape:pageopacity="0.0"
     inkscape:pagecheckerboard="0"
     inkscape:deskcolor="#d1d1d1"
     inkscape:document-units="px"
     inkscape:zoom="4"
     inkscape:cx="61"
     inkscape:cy="56.125"
     inkscape:window-width="1920"
     inkscape:window-height="1009"
     inkscape:window-x="1912"
     inkscape:window-y="-8"
     inkscape:window-maximized="1"
     inkscape:current-layer="layer2"
     inkscape:export-bgcolor="#ffffff00" />
  <defs
     id="defs1" />
  <g
     inkscape:groupmode="layer"
     id="layer2"
     inkscape:label="Background">
    <rect
       style="fill:#ffffff;stroke:#000000;stroke-width:0.783777;stroke-dasharray:none;stroke-opacity:1"
       id="rect1"
       width="23.028723"
       height="34.934975"
       x="0.39188856"
       y="0.39188856"
       rx="1.646103" />
  </g>
  <g
     inkscape:label="Layer 1"
     inkscape:groupmode="layer"
     id="layer1"
     transform="translate(-1,-1)">
    <path
       d="M 188.39357,-22.876743 V 22.081783 H 18.722499 q 2.756079,-25.4937235 16.53647,-48.231369 13.780391,-22.9099 54.432545,-60.633721 32.728426,-30.489113 40.135386,-41.341173 9.99079,-14.98618 9.99079,-29.62784 0,-16.19196 -8.785,-24.80471 -8.61275,-8.785 -23.94343,-8.785 -15.158432,0 -24.115687,9.12951 -8.957254,9.12951 -10.335293,30.31686 l -48.231369,-4.82313 q 4.306372,-39.96314 27.044018,-57.36088 22.737645,-17.39775 56.844111,-17.39775 37.37931,0 58.73892,20.15383 21.35961,20.15382 21.35961,50.12617 0,17.05323 -6.20118,32.55617 -6.02892,15.33069 -19.29255,32.211669 -8.785,11.196568 -31.6949,32.211664 -22.9099,21.015097 -29.11107,27.905293 -6.028925,6.890195 -9.818532,13.435881 z"
       id="text1"
       style="font-weight:bold;font-size:352.778px;font-family:Arial;-inkscape-font-specification:'Arial, Bold';white-space:pre;inline-size:297.107;stroke-width:0.264583;fill:#ff0000;fill-opacity:1"
       transform="matrix(0.04385585,0,0,0.04400543,2.0309922,12.244597)"
       aria-label="2" />
    <path
       inkscape:export-ydpi="95.969437"
       inkscape:export-xdpi="95.969437"
       inkscape:export-filename="D:\DAN\Documents\Projects\Playing Cards\test.png"
       inkscape:connector-curvature="0"
       id="path4884-1"
       d="M 18.4625,13.170834 24.01875,7.6145853 18.4625,2.0583333 12.90625,7.6145853 Z"
       style="fill:#ff0000;fill-opacity:1;stroke:none;stroke-width:0.196402" />
    <path
       inkscape:export-ydpi="95.969437"
       inkscape:export-xdpi="95.969437"
       inkscape:export-filename="D:\DAN\Documents\Projects\Playing Cards\test.png"
       inkscape:connector-curvature="0"
       id="path4884-1-5"
       d="M 12.90625,35.660417 21.6375,26.929169 12.90625,18.197917 4.175,26.929169 Z"
       style="fill:#ff0000;fill-opacity:1;stroke:none;stroke-width:0.308632" />
  </g>
</svg>
