<?xml version="1.0" encoding="UTF-8" standalone="no"?>
<!-- Created with Inkscape (http://www.inkscape.org/) -->

<svg
   width="90"
   height="135"
   viewBox="0 0 23.8125 35.71875"
   version="1.1"
   id="svg1"
   inkscape:version="1.4.2 (f4327f4, 2025-05-13)"
   sodipodi:docname="3-Diamond.svg"
   inkscape:export-filename="3-Diamond.svg"
   inkscape:export-xdpi="96"
   inkscape:export-ydpi="96"
   xmlns:inkscape="http://www.inkscape.org/namespaces/inkscape"
   xmlns:sodipodi="http://sodipodi.sourceforge.net/DTD/sodipodi-0.dtd"
   xmlns="http://www.w3.org/2000/svg"
   xmlns:svg="http://www.w3.org/2000/svg">
  <sodipodi:namedview
     id="namedview1"
     pagecolor="#ffffff"
     bordercolor="#000000"
     borderopacity="0.25"
     inkscape:showpageshadow="2"
     inkscape:pageopacity="0.0"
     inkscape:pagecheckerboard="0"
     inkscape:deskcolor="#d1d1d1"
     inkscape:document-units="px"
     inkscape:zoom="4"
     inkscape:cx="51.5"
     inkscape:cy="68.625"
     inkscape:window-width="1920"
     inkscape:window-height="1009"
     inkscape:window-x="1912"
     inkscape:window-y="-8"
     inkscape:window-maximized="1"
     inkscape:current-layer="layer2"
     inkscape:export-bgcolor="#ffffff00" />
  <defs
     id="defs1" />
  <g
     inkscape:groupmode="layer"
     id="layer2"
     inkscape:label="Background">
    <rect
       style="fill:#ffffff;stroke:#000000;stroke-width:0.783777;stroke-dasharray:none;stroke-opacity:1"
       id="rect1"
       width="23.028723"
       height="34.934975"
       x="0.39188856"
       y="0.39188856"
       rx="1.646103" />
  </g>
  <g
     inkscape:label="Layer 1"
     inkscape:groupmode="layer"
     id="layer1"
     transform="translate(-1,-1)">
    <path
       d="m 23.201127,-44.925369 46.85333,-5.684411 q 2.239313,17.914508 12.057842,27.388527 9.818529,9.474019 23.771171,9.474019 14.98618,0 25.14922,-11.368823 10.33529,-11.368822 10.33529,-30.66137 0,-18.259018 -9.81853,-28.938822 -9.81853,-10.679803 -23.94343,-10.679803 -9.301761,0 -22.220878,3.617353 l 5.339902,-39.446371 q 19.637056,0.51677 29.972346,-8.44049 10.3353,-9.12951 10.3353,-24.11568 0,-12.74687 -7.57922,-20.32608 -7.57921,-7.57922 -20.15382,-7.57922 -12.402352,0 -21.187351,8.61275 -8.784999,8.61274 -10.679803,25.14921 l -44.614017,-7.57921 q 4.650882,-22.9099 13.952646,-36.51804 9.474019,-13.78039 26.182744,-21.53186 16.880979,-7.92373 37.723821,-7.92373 35.65676,0 57.18862,22.73765 17.74226,18.60353 17.74226,42.03019 0,33.2452 -36.34578,53.05451 21.70411,4.65088 34.62323,20.842842 13.09137,16.191959 13.09137,39.10186 0,33.245193 -24.28794,56.6718585 -24.28794,23.4266655 -60.46147,23.4266655 -34.27872,0 -56.84411,-19.6370579 Q 26.818479,-13.058214 23.201127,-44.925369 Z"
       id="text1"
       style="font-weight:bold;font-size:352.778px;font-family:Arial;-inkscape-font-specification:'Arial, Bold';white-space:pre;inline-size:297.107;stroke-width:0.264583;fill:#ff0000;fill-opacity:1"
       transform="matrix(0.04385585,0,0,0.04400543,2.0309922,12.244597)"
       aria-label="3" />
    <path
       inkscape:export-ydpi="95.969437"
       inkscape:export-xdpi="95.969437"
       inkscape:export-filename="D:\DAN\Documents\Projects\Playing Cards\test.png"
       inkscape:connector-curvature="0"
       id="path4884-1"
       d="M 18.4625,13.170835 24.01875,7.6145853 18.4625,2.0583333 12.90625,7.6145853 Z"
       style="fill:#ff0000;fill-opacity:1;stroke:none;stroke-width:0.196402" />
    <path
       inkscape:export-ydpi="95.969437"
       inkscape:export-xdpi="95.969437"
       inkscape:export-filename="D:\DAN\Documents\Projects\Playing Cards\test.png"
       inkscape:connector-curvature="0"
       id="path4884-1-5"
       d="M 12.90625,35.660418 21.6375,26.929169 12.90625,18.197917 4.175,26.929169 Z"
       style="fill:#ff0000;fill-opacity:1;stroke:none;stroke-width:0.308632" />
  </g>
</svg>
