<?xml version="1.0" encoding="UTF-8" standalone="no"?>
<!-- Created with Inkscape (http://www.inkscape.org/) -->

<svg
   width="90"
   height="135"
   viewBox="0 0 23.8125 35.71875"
   version="1.1"
   id="svg1"
   inkscape:version="1.4.2 (f4327f4, 2025-05-13)"
   sodipodi:docname="3-Heart.svg"
   inkscape:export-filename="3-Diamond.svg"
   inkscape:export-xdpi="96"
   inkscape:export-ydpi="96"
   xmlns:inkscape="http://www.inkscape.org/namespaces/inkscape"
   xmlns:sodipodi="http://sodipodi.sourceforge.net/DTD/sodipodi-0.dtd"
   xmlns="http://www.w3.org/2000/svg"
   xmlns:svg="http://www.w3.org/2000/svg">
  <sodipodi:namedview
     id="namedview1"
     pagecolor="#ffffff"
     bordercolor="#000000"
     borderopacity="0.25"
     inkscape:showpageshadow="2"
     inkscape:pageopacity="0.0"
     inkscape:pagecheckerboard="0"
     inkscape:deskcolor="#d1d1d1"
     inkscape:document-units="px"
     inkscape:zoom="4"
     inkscape:cx="71.75"
     inkscape:cy="60.375"
     inkscape:window-width="1920"
     inkscape:window-height="1009"
     inkscape:window-x="1912"
     inkscape:window-y="-8"
     inkscape:window-maximized="1"
     inkscape:current-layer="layer2"
     inkscape:export-bgcolor="#ffffff00" />
  <defs
     id="defs1" />
  <g
     inkscape:groupmode="layer"
     id="layer2"
     inkscape:label="Background">
    <rect
       style="fill:#ffffff;stroke:#000000;stroke-width:0.783777;stroke-dasharray:none;stroke-opacity:1"
       id="rect1"
       width="23.028723"
       height="34.934975"
       x="0.39188856"
       y="0.39188856"
       rx="1.646103" />
    <path
       sodipodi:nodetypes="csssssssscssssssssc"
       inkscape:connector-curvature="0"
       id="path3940-9"
       d="m 11.896271,34.660466 c -0.820159,-1.755048 -1.878985,-3.395047 -3.1369432,-4.858991 -0.811249,-0.944129 -1.703018,-1.813336 -2.606447,-2.666847 -0.705649,-0.666709 -1.423937,-1.3298 -2.001359,-2.113417 -0.39006,-0.529429 -0.715659,-1.118379 -0.870759,-1.760448 -0.28083,-1.162908 0.0242,-2.409558 0.601149,-3.454183 0.33759,-0.611819 0.769669,-1.174413 1.301716,-1.621662 0.790569,-0.664509 1.822104,-1.061828 2.845048,-0.975148 0.938079,0.0792 1.815382,0.557039 2.4999442,1.212902 0.60588,0.580469 1.077779,1.303982 1.377628,2.096773 0.299859,-0.792769 0.771759,-1.516337 1.377627,-2.096773 0.684529,-0.655819 1.561833,-1.133373 2.499934,-1.212902 1.022998,-0.0869 2.054445,0.310639 2.845047,0.975148 0.532069,0.44726 0.964039,1.009909 1.301705,1.621662 0.57651,1.044669 0.882089,2.291275 0.60126,3.454183 -0.1551,0.642069 -0.48059,1.231052 -0.870759,1.760448 -0.57739,0.783639 -1.295656,1.446697 -2.00136,2.113417 -0.903429,0.853489 -1.795186,1.722751 -2.606446,2.666847 -1.257959,1.463944 -2.31674,3.103943 -3.136943,4.858991"
       style="fill:#ff0000;fill-opacity:1;stroke:none;stroke-width:0.308631" />
    <path
       sodipodi:nodetypes="csssssssscssssssssc"
       inkscape:connector-curvature="0"
       id="path3940-9-5"
       d="M 17.456098,12.170835 C 16.934144,11.05398 16.260375,10.010342 15.459854,9.078744 14.943598,8.4779561 14.376121,7.9248016 13.80121,7.3816526 13.352122,6.9573824 12.895065,6.5354164 12.527612,6.0367519 12.279371,5.6998616 12.072215,5.3250541 11.973524,4.9164646 c -0.17875,-0.7400308 0.01571,-1.5333534 0.382579,-2.1981188 0.214854,-0.3893116 0.489752,-0.7473511 0.828363,-1.0319649 0.503105,-0.422875 1.159521,-0.675715 1.810485,-0.620529 0.596976,0.05061 1.155243,0.354497 1.590877,0.77185 0.385549,0.3693657 0.685857,0.8298067 0.876671,1.33431 0.190815,-0.5045033 0.491124,-0.9649443 0.876672,-1.33431 0.435635,-0.417353 0.993902,-0.72124 1.590872,-0.77185 0.650963,-0.05519 1.307379,0.197654 1.810486,0.620529 0.338616,0.2846138 0.613507,0.6426533 0.828362,1.0319649 0.366873,0.6647654 0.561335,1.458088 0.382584,2.1981188 -0.09869,0.4085895 -0.305853,0.783397 -0.554095,1.1202873 -0.367445,0.4986645 -0.824508,0.9206305 -1.27359,1.3449007 -0.574911,0.543149 -1.142396,1.0963035 -1.658652,1.6970914 -0.800519,0.931598 -1.474289,1.975236 -1.996242,3.092091"
       style="fill:#ff0000;fill-opacity:1;stroke:none;stroke-width:0.196402" />
  </g>
  <g
     inkscape:label="Layer 1"
     inkscape:groupmode="layer"
     id="layer1"
     transform="translate(-1,-1)">
    <path
       d="m 23.201127,-44.925369 46.85333,-5.684411 q 2.239313,17.914508 12.057842,27.388527 9.818529,9.474019 23.771171,9.474019 14.98618,0 25.14922,-11.368823 10.33529,-11.368822 10.33529,-30.66137 0,-18.259018 -9.81853,-28.938822 -9.81853,-10.679803 -23.94343,-10.679803 -9.301761,0 -22.220878,3.617353 l 5.339902,-39.446371 q 19.637056,0.51677 29.972346,-8.44049 10.3353,-9.12951 10.3353,-24.11568 0,-12.74687 -7.57922,-20.32608 -7.57921,-7.57922 -20.15382,-7.57922 -12.402352,0 -21.187351,8.61275 -8.784999,8.61274 -10.679803,25.14921 l -44.614017,-7.57921 q 4.650882,-22.9099 13.952646,-36.51804 9.474019,-13.78039 26.182744,-21.53186 16.880979,-7.92373 37.723821,-7.92373 35.65676,0 57.18862,22.73765 17.74226,18.60353 17.74226,42.03019 0,33.2452 -36.34578,53.05451 21.70411,4.65088 34.62323,20.842842 13.09137,16.191959 13.09137,39.10186 0,33.245193 -24.28794,56.6718585 -24.28794,23.4266655 -60.46147,23.4266655 -34.27872,0 -56.84411,-19.6370579 Q 26.818479,-13.058214 23.201127,-44.925369 Z"
       id="text1"
       style="font-weight:bold;font-size:352.778px;font-family:Arial;-inkscape-font-specification:'Arial, Bold';white-space:pre;inline-size:297.107;stroke-width:0.264583;fill:#ff0000;fill-opacity:1"
       transform="matrix(0.04385585,0,0,0.04400543,2.0309922,12.244597)"
       aria-label="3" />
  </g>
</svg>
