<?xml version="1.0" encoding="UTF-8" standalone="no"?>
<!-- Created with Inkscape (http://www.inkscape.org/) -->

<svg
   width="90"
   height="135"
   viewBox="0 0 23.8125 35.71875"
   version="1.1"
   id="svg1"
   inkscape:version="1.4.2 (f4327f4, 2025-05-13)"
   sodipodi:docname="6-Diamond.svg"
   inkscape:export-filename="..\6-Spade.png"
   inkscape:export-xdpi="96"
   inkscape:export-ydpi="96"
   xmlns:inkscape="http://www.inkscape.org/namespaces/inkscape"
   xmlns:sodipodi="http://sodipodi.sourceforge.net/DTD/sodipodi-0.dtd"
   xmlns="http://www.w3.org/2000/svg"
   xmlns:svg="http://www.w3.org/2000/svg">
  <sodipodi:namedview
     id="namedview1"
     pagecolor="#ffffff"
     bordercolor="#000000"
     borderopacity="0.25"
     inkscape:showpageshadow="2"
     inkscape:pageopacity="0.0"
     inkscape:pagecheckerboard="0"
     inkscape:deskcolor="#d1d1d1"
     inkscape:document-units="px"
     inkscape:zoom="2.8284271"
     inkscape:cx="36.769553"
     inkscape:cy="57.452426"
     inkscape:window-width="1920"
     inkscape:window-height="1009"
     inkscape:window-x="1912"
     inkscape:window-y="-8"
     inkscape:window-maximized="1"
     inkscape:current-layer="layer1"
     inkscape:export-bgcolor="#ffffff00" />
  <defs
     id="defs1" />
  <g
     inkscape:groupmode="layer"
     id="layer2"
     inkscape:label="Background">
    <rect
       style="fill:#ffffff;stroke:#000000;stroke-width:0.785481;stroke-dasharray:none;stroke-opacity:1"
       id="rect1"
       width="23.130083"
       height="34.93327"
       x="0.39274049"
       y="0.39274049"
       rx="1.6533483" />
  </g>
  <g
     inkscape:label="Layer 1"
     inkscape:groupmode="layer"
     id="layer1"
     transform="translate(-1,-1)">
    <path
       d="m 188.91033,-168.60438 -46.85333,5.16765 q -1.72255,-14.46941 -8.95725,-21.35961 -7.23471,-6.8902 -18.77579,-6.8902 -15.330682,0 -26.010485,13.7804 -10.507548,13.78039 -13.263627,57.36087 18.086764,-21.3596 44.958522,-21.3596 30.31687,0 51.84873,23.08215 21.70411,23.082158 21.70411,59.600195 0,38.75735 -22.73764,62.1840155 -22.73765,23.4266655 -58.39441,23.4266655 -38.240586,0 -62.873035,-29.6278416 -24.63245,-29.8000964 -24.63245,-97.4962644 0,-69.41872 25.665979,-100.08009 25.665979,-30.66138 66.662646,-30.66138 28.76656,0 47.54235,16.19196 18.94803,16.01971 24.11568,46.68108 z M 79.183966,-63.012132 q 0,23.598919 10.852058,36.518036 10.852056,12.746862 24.804706,12.746862 13.43588,0 22.39313,-10.507548 8.95726,-10.507548 8.95726,-34.450978 0,-24.63245 -9.64628,-36.001272 -9.64627,-11.541078 -24.11568,-11.541078 -13.952646,0 -23.59892,11.024313 -9.646274,10.852058 -9.646274,32.211665 z"
       id="text1"
       style="font-weight:bold;font-size:352.778px;font-family:Arial;-inkscape-font-specification:'Arial, Bold';white-space:pre;inline-size:297.107;stroke-width:0.264583;fill:#ff0000;fill-opacity:1"
       transform="matrix(0.04385585,0,0,0.04400543,2.0309922,12.244597)"
       aria-label="6" />
    <path
       inkscape:export-ydpi="95.969437"
       inkscape:export-xdpi="95.969437"
       inkscape:export-filename="D:\DAN\Documents\Projects\Playing Cards\test.png"
       inkscape:connector-curvature="0"
       id="path4884-1"
       d="M 18.4625,13.170834 24.01875,7.6145856 18.4625,2.0583333 12.90625,7.6145856 Z"
       style="fill:#ff0000;fill-opacity:1;stroke:none;stroke-width:0.196402" />
    <path
       inkscape:export-ydpi="95.969437"
       inkscape:export-xdpi="95.969437"
       inkscape:export-filename="D:\DAN\Documents\Projects\Playing Cards\test.png"
       inkscape:connector-curvature="0"
       id="path4884-1-5"
       d="M 12.90625,35.660417 21.6375,26.929169 12.90625,18.197917 4.175,26.929169 Z"
       style="fill:#ff0000;fill-opacity:1;stroke:none;stroke-width:0.308632" />
  </g>
</svg>
