<?xml version="1.0" encoding="UTF-8" standalone="no"?>
<!-- Created with Inkscape (http://www.inkscape.org/) -->

<svg
   width="90"
   height="135"
   viewBox="0 0 23.8125 35.71875"
   version="1.1"
   id="svg1"
   inkscape:version="1.4.2 (f4327f4, 2025-05-13)"
   sodipodi:docname="Q-Diamond.svg"
   inkscape:export-filename="..\J-Spade.png"
   inkscape:export-xdpi="96"
   inkscape:export-ydpi="96"
   xmlns:inkscape="http://www.inkscape.org/namespaces/inkscape"
   xmlns:sodipodi="http://sodipodi.sourceforge.net/DTD/sodipodi-0.dtd"
   xmlns="http://www.w3.org/2000/svg"
   xmlns:svg="http://www.w3.org/2000/svg">
  <sodipodi:namedview
     id="namedview1"
     pagecolor="#ffffff"
     bordercolor="#000000"
     borderopacity="0.25"
     inkscape:showpageshadow="2"
     inkscape:pageopacity="0.0"
     inkscape:pagecheckerboard="0"
     inkscape:deskcolor="#d1d1d1"
     inkscape:document-units="px"
     inkscape:zoom="4"
     inkscape:cx="73"
     inkscape:cy="58.375"
     inkscape:window-width="1920"
     inkscape:window-height="1009"
     inkscape:window-x="1912"
     inkscape:window-y="-8"
     inkscape:window-maximized="1"
     inkscape:current-layer="layer1"
     inkscape:export-bgcolor="#ffffff00" />
  <defs
     id="defs1" />
  <g
     inkscape:groupmode="layer"
     id="layer2"
     inkscape:label="Background">
    <rect
       style="fill:#ffffff;stroke:#000000;stroke-width:0.785481;stroke-dasharray:none;stroke-opacity:1"
       id="rect1"
       width="23.130083"
       height="34.93327"
       x="0.39274049"
       y="0.39274049"
       rx="1.6533483" />
  </g>
  <g
     inkscape:label="Layer 1"
     inkscape:groupmode="layer"
     id="layer1"
     transform="translate(-1,-1)">
    <path
       d="M 197.69533,-9.9576263 Q 213.02602,3.3060003 231.11278,11.40198 l -15.33069,36.001272 q -9.30176,-3.445098 -18.25901,-9.301764 -2.06706,-1.205784 -28.07755,-22.565391 -20.49833,10.852059 -46.85333,10.852059 -44.786273,0 -72.519311,-33.4174491 -27.560782,-33.5897039 -27.560782,-97.1517569 0,-63.73431 27.733037,-97.15176 27.905293,-33.41745 73.036076,-33.41745 44.61401,0 72.1748,33.58971 27.73303,33.41744 27.73303,96.9795 0,30.833624 -6.20117,53.054505 -6.02892,22.220881 -19.29255,41.1689187 z m -33.5897,-28.7665667 q 16.0197,-22.393136 16.0197,-65.284607 0,-44.44176 -16.0197,-65.80136 -16.01971,-21.35961 -41.16892,-21.35961 -25.149216,0 -41.341176,21.35961 -16.019704,21.3596 -16.019704,65.62911 0,44.958525 16.019704,66.662641 16.19196,21.531862 40.135386,21.531862 8.95726,0 17.05324,-3.617353 -13.09137,-10.335294 -25.83824,-15.84745 l 11.71334,-29.111076 q 20.67058,8.612744 39.44637,25.838233 z"
       id="text1"
       style="font-weight:bold;font-stretch:condensed;font-size:352.778px;font-family:Arial;-inkscape-font-specification:'Arial, Bold Condensed';white-space:pre;inline-size:297.107;stroke-width:0.264583;fill:#ff0000;fill-opacity:1"
       transform="matrix(0.04385585,0,0,0.04400543,2.0309922,12.244597)"
       aria-label="Q" />
    <path
       inkscape:export-ydpi="95.969437"
       inkscape:export-xdpi="95.969437"
       inkscape:export-filename="D:\DAN\Documents\Projects\Playing Cards\test.png"
       inkscape:connector-curvature="0"
       id="path4884-1"
       d="M 18.4625,13.170834 24.01875,7.6145853 18.4625,2.0583333 12.90625,7.6145853 Z"
       style="fill:#ff0000;fill-opacity:1;stroke:none;stroke-width:0.196402" />
    <path
       inkscape:export-ydpi="95.969437"
       inkscape:export-xdpi="95.969437"
       inkscape:export-filename="D:\DAN\Documents\Projects\Playing Cards\test.png"
       inkscape:connector-curvature="0"
       id="path4884-1-5"
       d="M 12.90625,35.660417 21.6375,26.929169 12.90625,18.197917 4.175,26.929169 Z"
       style="fill:#ff0000;fill-opacity:1;stroke:none;stroke-width:0.308632" />
  </g>
</svg>
