<?xml version="1.0" encoding="UTF-8" standalone="no"?>
<!-- Created with Inkscape (http://www.inkscape.org/) -->

<svg
   version="1.1"
   id="svg1"
   width="1024"
   height="1024"
   viewBox="0 0 1024 1024"
   sodipodi:docname="Club.svg"
   inkscape:version="1.4.2 (f4327f4, 2025-05-13)"
   inkscape:export-filename="Club.png"
   inkscape:export-xdpi="768"
   inkscape:export-ydpi="768"
   xmlns:inkscape="http://www.inkscape.org/namespaces/inkscape"
   xmlns:sodipodi="http://sodipodi.sourceforge.net/DTD/sodipodi-0.dtd"
   xmlns="http://www.w3.org/2000/svg"
   xmlns:svg="http://www.w3.org/2000/svg">
  <defs
     id="defs1" />
  <sodipodi:namedview
     id="namedview1"
     pagecolor="#ffffff"
     bordercolor="#000000"
     borderopacity="0.25"
     inkscape:showpageshadow="2"
     inkscape:pageopacity="0.0"
     inkscape:pagecheckerboard="0"
     inkscape:deskcolor="#d1d1d1"
     showgrid="false"
     inkscape:zoom="0.34943979"
     inkscape:cx="161.68737"
     inkscape:cy="390.62523"
     inkscape:window-width="1920"
     inkscape:window-height="1009"
     inkscape:window-x="1912"
     inkscape:window-y="-8"
     inkscape:window-maximized="1"
     inkscape:current-layer="g1" />
  <g
     inkscape:groupmode="layer"
     inkscape:label="Image"
     id="g1"
     transform="translate(-22.367959,-837.31478)">
    <rect
       style="fill:#000000;fill-opacity:1;stroke:none;stroke-width:4.16327"
       id="rect4124-6-6"
       width="87.302513"
       height="494.51489"
       x="490.64734"
       y="1366.7999" />
    <path
       inkscape:connector-curvature="0"
       id="path3979-1-6-1-1"
       d="m 1014.0648,1413.7211 c 68.7464,123.7028 24.1674,279.698 -99.56863,348.4252 -123.73617,68.7273 -279.77323,24.1609 -348.5185,-99.5419 -18.30921,-32.9448 -29.12252,-69.5221 -31.63034,-107.0806 -9.56629,141.2298 -131.83699,247.8993 -273.06208,238.2968 -141.22382,-9.6027 -247.921547,-131.8413 -238.316463,-273.0277 9.605083,-141.1862 131.876873,-247.856 273.100873,-238.2533 37.07488,2.521 73.15762,13.0715 106.21444,30.9467 -121.02876,-72.5865 -160.6401,-229.9158 -88.00783,-351.37845 72.63244,-121.46261 230.0039,-161.06322 351.49945,-88.45051 121.49447,72.6129 161.10599,229.94206 88.47354,351.40466 -21.85322,36.546 -52.47274,67.0713 -88.89556,88.9671 123.92869,-68.5771 279.96593,-24.0107 348.7111,99.692 z"
       style="fill:#000000;fill-opacity:1;stroke:none;stroke-width:3.25768"
       sodipodi:nodetypes="ssscssscssscs" />
  </g>
</svg>
