<?xml version="1.0" encoding="UTF-8" standalone="no"?>
<!-- Created with Inkscape (http://www.inkscape.org/) -->

<svg
   width="17.462481mm"
   height="17.462749mm"
   viewBox="0 0 17.462481 17.462749"
   version="1.1"
   id="svg1"
   inkscape:version="1.4.2 (f4327f4, 2025-05-13)"
   sodipodi:docname="Combined Suits 2.svg"
   xml:space="preserve"
   inkscape:export-filename="..\UI\MainMenu\Game Icons\4 Suits.png"
   inkscape:export-xdpi="96"
   inkscape:export-ydpi="96"
   xmlns:inkscape="http://www.inkscape.org/namespaces/inkscape"
   xmlns:sodipodi="http://sodipodi.sourceforge.net/DTD/sodipodi-0.dtd"
   xmlns="http://www.w3.org/2000/svg"
   xmlns:svg="http://www.w3.org/2000/svg"><sodipodi:namedview
     id="namedview1"
     pagecolor="#000000"
     bordercolor="#000000"
     borderopacity="0.25"
     inkscape:showpageshadow="2"
     inkscape:pageopacity="0.0"
     inkscape:pagecheckerboard="0"
     inkscape:deskcolor="#d1d1d1"
     inkscape:document-units="mm"
     inkscape:zoom="8.1336326"
     inkscape:cx="43.461516"
     inkscape:cy="40.756697"
     inkscape:window-width="1920"
     inkscape:window-height="1009"
     inkscape:window-x="1912"
     inkscape:window-y="-8"
     inkscape:window-maximized="1"
     inkscape:current-layer="layer1"
     inkscape:export-bgcolor="#ffffff00" /><defs
     id="defs1"><inkscape:path-effect
       effect="powerclip"
       message=""
       id="path-effect4"
       is_visible="true"
       lpeversion="1"
       inverse="true"
       flatten="false"
       hide_clip="false" /><clipPath
       clipPathUnits="userSpaceOnUse"
       id="clipPath4"><path
         style="baseline-shift:baseline;display:none;overflow:visible;vector-effect:none;stroke-width:1;enable-background:accumulate;stop-color:#000000;stop-opacity:1"
         d="m 102.58398,142.67187 c -0.66439,-0.0571 -1.31432,0.2017 -1.81054,0.625 -0.33201,0.2833 -0.59779,0.63475 -0.802737,1.01172 -0.351956,0.64669 -0.546531,1.42598 -0.367187,2.17969 0.09897,0.4158 0.303273,0.78652 0.539064,1.11133 0.34843,0.4799 0.77045,0.87289 1.17187,1.25781 0.51387,0.49268 1.0172,0.98972 1.47071,1.52539 0.70312,0.83048 1.29527,1.76175 1.7539,2.75781 l 0.23633,-0.10742 0.23633,0.10742 c 0.45867,-0.99607 1.05076,-1.92734 1.75391,-2.75781 0.45352,-0.53566 0.95491,-1.03271 1.46875,-1.52539 0.40146,-0.38492 0.82541,-0.77788 1.17382,-1.25781 0.2359,-0.32484 0.4381,-0.6956 0.53711,-1.11133 0.17934,-0.75378 -0.0156,-1.53307 -0.36718,-2.17969 -0.20495,-0.37687 -0.4687,-0.72839 -0.80079,-1.01172 -0.49621,-0.42328 -1.14608,-0.68222 -1.81054,-0.625 -0.60849,0.0523 -1.15773,0.36085 -1.58203,0.77344 -0.26915,0.26171 -0.43572,0.60622 -0.60938,0.94141 -0.1737,-0.33547 -0.34004,-0.67952 -0.60937,-0.94141 -0.4243,-0.41258 -0.97346,-0.72128 -1.58204,-0.77344 z m -0.0449,0.50586 c 0.46251,0.0396 0.91616,0.28344 1.27344,0.63086 0.31757,0.3088 0.56623,0.69603 0.72461,1.1211 l 0.23828,0.63867 0.23633,-0.63867 c 0.15842,-0.42504 0.40902,-0.81232 0.72656,-1.1211 0.35724,-0.34737 0.80887,-0.59106 1.27149,-0.63086 0.50296,-0.0433 1.03123,0.15795 1.4375,0.50391 0.27543,0.23499 0.50499,0.53711 0.68554,0.86914 0.30665,0.56392 0.46158,1.22654 0.32032,1.82031 -0.0782,0.32829 -0.24745,0.64108 -0.45704,0.92969 -0.31084,0.42817 -0.70703,0.80377 -1.11132,1.19141 -0.51767,0.49634 -1.03311,1.00607 -1.50586,1.56445 -0.643,0.75943 -1.15481,1.62467 -1.60352,2.51953 -0.44869,-0.89486 -0.96055,-1.76011 -1.60351,-2.51953 -0.47276,-0.5584 -0.98817,-1.06811 -1.50586,-1.56445 -0.40426,-0.38764 -0.80242,-0.76325 -1.11329,-1.19141 -0.20957,-0.28869 -0.37695,-0.60147 -0.45507,-0.92969 -0.141308,-0.59384 0.0115,-1.25654 0.31836,-1.82031 0.18051,-0.33203 0.41011,-0.63412 0.68554,-0.86914 0.40644,-0.34671 0.93394,-0.54722 1.4375,-0.50391 z"
         id="path4" /><path
         id="lpe_path-effect4"
         style="baseline-shift:baseline;display:inline;overflow:visible;vector-effect:none;stroke-width:1;enable-background:accumulate;stop-color:#000000;stop-opacity:1"
         class="powerclip"
         d="m 91.04364,134.7003 h 27.4625 v 27.46164 h -27.4625 z m 11.54034,7.97157 c -0.66439,-0.0571 -1.31432,0.2017 -1.81054,0.625 -0.33201,0.2833 -0.59779,0.63475 -0.802737,1.01172 -0.351956,0.64669 -0.546531,1.42598 -0.367187,2.17969 0.09897,0.4158 0.303273,0.78652 0.539064,1.11133 0.34843,0.4799 0.77045,0.87289 1.17187,1.25781 0.51387,0.49268 1.0172,0.98972 1.47071,1.52539 0.70312,0.83048 1.29527,1.76175 1.7539,2.75781 l 0.23633,-0.10742 0.23633,0.10742 c 0.45867,-0.99607 1.05076,-1.92734 1.75391,-2.75781 0.45352,-0.53566 0.95491,-1.03271 1.46875,-1.52539 0.40146,-0.38492 0.82541,-0.77788 1.17382,-1.25781 0.2359,-0.32484 0.4381,-0.6956 0.53711,-1.11133 0.17934,-0.75378 -0.0156,-1.53307 -0.36718,-2.17969 -0.20495,-0.37687 -0.4687,-0.72839 -0.80079,-1.01172 -0.49621,-0.42328 -1.14608,-0.68222 -1.81054,-0.625 -0.60849,0.0523 -1.15773,0.36085 -1.58203,0.77344 -0.26915,0.26171 -0.43572,0.60622 -0.60938,0.94141 -0.1737,-0.33547 -0.34004,-0.67952 -0.60937,-0.94141 -0.4243,-0.41258 -0.97346,-0.72128 -1.58204,-0.77344 z m -0.0449,0.50586 c -0.50356,-0.0433 -1.03106,0.1572 -1.4375,0.50391 -0.27543,0.23502 -0.50503,0.53711 -0.68554,0.86914 -0.30686,0.56377 -0.459668,1.22647 -0.31836,1.82031 0.0781,0.32822 0.2455,0.641 0.45507,0.92969 0.31087,0.42816 0.70903,0.80377 1.11329,1.19141 0.51769,0.49634 1.0331,1.00605 1.50586,1.56445 0.64296,0.75942 1.15482,1.62467 1.60351,2.51953 0.44871,-0.89486 0.96052,-1.7601 1.60352,-2.51953 0.47275,-0.55838 0.98819,-1.06811 1.50586,-1.56445 0.40429,-0.38764 0.80048,-0.76324 1.11132,-1.19141 0.20959,-0.28861 0.37884,-0.6014 0.45704,-0.92969 0.14126,-0.59377 -0.0137,-1.25639 -0.32032,-1.82031 -0.18055,-0.33203 -0.41011,-0.63415 -0.68554,-0.86914 -0.40627,-0.34596 -0.93454,-0.54721 -1.4375,-0.50391 -0.46262,0.0398 -0.91425,0.28349 -1.27149,0.63086 -0.31754,0.30878 -0.56814,0.69606 -0.72656,1.1211 l -0.23633,0.63867 -0.23828,-0.63867 c -0.15838,-0.42507 -0.40704,-0.8123 -0.72461,-1.1211 -0.35728,-0.34742 -0.81093,-0.59126 -1.27344,-0.63086 z" /></clipPath></defs><g
     inkscape:label="Layer 1"
     inkscape:groupmode="layer"
     id="layer1"
     transform="translate(-96.04376,-139.7003)"><path
       style="display:inline;fill:#ffffff;fill-opacity:1;stroke-width:1.57216"
       d="m 101.55655,157.11936 c -0.1646,-0.0822 -0.23704,-0.2158 -0.21993,-0.40618 0.0172,-0.192 0.12287,-0.28562 0.40843,-0.3616 0.44744,-0.119 0.68146,-0.26122 1.03392,-0.62804 0.84309,-0.87747 1.37121,-2.01867 1.48029,-3.19866 l 0.012,-0.1274 -0.1404,0.1274 c -0.35746,0.32412 -0.59306,0.49968 -0.92442,0.68881 -0.57089,0.32586 -1.24224,0.5439 -1.95159,0.63386 -0.3229,0.0408 -0.93738,0.0364 -1.24965,-0.01 -1.052365,-0.154 -2.012292,-0.63926 -2.767667,-1.39923 -0.745375,-0.7499 -1.147469,-1.68109 -1.189831,-2.75543 -0.0196,-0.49714 0.0315,-0.9703 0.158339,-1.46595 0.390177,-1.52482 1.394472,-2.95955 3.146595,-4.4952 0.642325,-0.56294 0.940154,-0.80066 2.584854,-2.06298 0.91155,-0.69961 1.40333,-1.08913 1.80906,-1.43295 0.1596,-0.1352 0.33672,-0.28118 0.39363,-0.32432 0.33892,-0.25688 0.87202,-0.26924 1.22768,-0.0286 0.0562,0.038 0.2637,0.20458 0.46084,0.36992 0.5555,0.46594 0.81957,0.67388 2.25277,1.77395 1.60959,1.23546 2.24727,1.7755 3.0039,2.54385 0.84502,0.85816 1.39582,1.59978 1.8033,2.42819 0.3277,0.66614 0.50683,1.25726 0.59701,1.96997 0.0312,0.24732 0.0258,0.86932 -0.01,1.13242 -0.1026,0.75621 -0.39541,1.43587 -0.87507,2.03145 -0.1836,0.22792 -0.55158,0.58232 -0.79158,0.76228 -0.69314,0.51977 -1.43885,0.83355 -2.26701,0.95389 -0.21956,0.032 -0.29892,0.0348 -0.74238,0.0272 -0.43243,-0.01 -0.52749,-0.014 -0.73641,-0.0518 -1.0666,-0.1922 -1.90659,-0.6025 -2.64009,-1.28937 -0.1316,-0.1234 -0.1322,-0.1236 -0.1322,-0.0722 0,0.0288 0.012,0.1426 0.0262,0.25324 0.155,1.19225 0.70996,2.29301 1.58067,3.13558 0.28978,0.28042 0.49302,0.39602 0.88246,0.50182 0.21228,0.0578 0.26184,0.079 0.32928,0.1416 0.0774,0.072 0.1064,0.1462 0.1068,0.27694 5.2e-4,0.1472 -0.0478,0.24608 -0.1578,0.32332 -0.0738,0.0518 -0.0746,0.052 -0.37546,0.0628 -0.1658,0.004 -1.59213,0.012 -3.16961,0.012 l -2.86808,0.002 z"
       id="path1-8"
       inkscape:label="Spade"
       clip-path="url(#clipPath4)"
       inkscape:path-effect="#path-effect4"
       inkscape:original-d="m 101.55655,157.11936 c -0.1646,-0.0822 -0.23704,-0.2158 -0.21993,-0.40618 0.0172,-0.192 0.12287,-0.28562 0.40843,-0.3616 0.44744,-0.119 0.68146,-0.26122 1.03392,-0.62804 0.84309,-0.87747 1.37121,-2.01867 1.48029,-3.19866 l 0.012,-0.1274 -0.1404,0.1274 c -0.35746,0.32412 -0.59306,0.49968 -0.92442,0.68881 -0.57089,0.32586 -1.24224,0.5439 -1.95159,0.63386 -0.3229,0.0408 -0.93738,0.0364 -1.24965,-0.01 -1.052365,-0.154 -2.012292,-0.63926 -2.767667,-1.39923 -0.745375,-0.7499 -1.147469,-1.68109 -1.189831,-2.75543 -0.0196,-0.49714 0.0315,-0.9703 0.158339,-1.46595 0.390177,-1.52482 1.394472,-2.95955 3.146595,-4.4952 0.642325,-0.56294 0.940154,-0.80066 2.584854,-2.06298 0.91155,-0.69961 1.40333,-1.08913 1.80906,-1.43295 0.1596,-0.1352 0.33672,-0.28118 0.39363,-0.32432 0.33892,-0.25688 0.87202,-0.26924 1.22768,-0.0286 0.0562,0.038 0.2637,0.20458 0.46084,0.36992 0.5555,0.46594 0.81957,0.67388 2.25277,1.77395 1.60959,1.23546 2.24727,1.7755 3.0039,2.54385 0.84502,0.85816 1.39582,1.59978 1.8033,2.42819 0.3277,0.66614 0.50683,1.25726 0.59701,1.96997 0.0312,0.24732 0.0258,0.86932 -0.01,1.13242 -0.1026,0.75621 -0.39541,1.43587 -0.87507,2.03145 -0.1836,0.22792 -0.55158,0.58232 -0.79158,0.76228 -0.69314,0.51977 -1.43885,0.83355 -2.26701,0.95389 -0.21956,0.032 -0.29892,0.0348 -0.74238,0.0272 -0.43243,-0.01 -0.52749,-0.014 -0.73641,-0.0518 -1.0666,-0.1922 -1.90659,-0.6025 -2.64009,-1.28937 -0.1316,-0.1234 -0.1322,-0.1236 -0.1322,-0.0722 0,0.0288 0.012,0.1426 0.0262,0.25324 0.155,1.19225 0.70996,2.29301 1.58067,3.13558 0.28978,0.28042 0.49302,0.39602 0.88246,0.50182 0.21228,0.0578 0.26184,0.079 0.32928,0.1416 0.0774,0.072 0.1064,0.1462 0.1068,0.27694 5.2e-4,0.1472 -0.0478,0.24608 -0.1578,0.32332 -0.0738,0.0518 -0.0746,0.052 -0.37546,0.0628 -0.1658,0.004 -1.59213,0.012 -3.16961,0.012 l -2.86808,0.002 z" /><g
       id="path3940-9"
       inkscape:label="Heart"
       style="opacity:1"><path
         style="baseline-shift:baseline;display:inline;overflow:visible;vector-effect:none;fill:#ffffff;enable-background:accumulate;stop-color:#000000;stop-opacity:1;fill-opacity:1"
         d="m 104.7693,153.03517 c -0.46821,-1.01687 -1.07269,-1.96707 -1.79082,-2.81527 -0.46313,-0.54704 -0.97221,-1.05065 -1.48799,-1.54516 -0.40284,-0.38628 -0.81289,-0.77048 -1.14254,-1.22451 -0.22268,-0.30675 -0.408559,-0.64797 -0.497103,-1.01998 -0.160324,-0.67378 0.01379,-1.39611 0.343183,-2.00134 0.19273,-0.3545 0.43941,-0.68043 0.74313,-0.93959 0.45133,-0.38501 1.04023,-0.61521 1.62421,-0.56498 0.53554,0.0459 1.03636,0.32273 1.42715,0.70273 0.34589,0.33633 0.6153,0.75552 0.78646,1.21487 0.17119,-0.45931 0.44061,-0.87855 0.78648,-1.21487 0.39077,-0.37998 0.89162,-0.65666 1.42717,-0.70273 0.58402,-0.0503 1.17286,0.17997 1.6242,0.56498 0.30376,0.25916 0.55036,0.58514 0.74311,0.93959 0.32913,0.60527 0.50357,1.32756 0.34327,2.00134 -0.0886,0.37201 -0.27437,0.71325 -0.49711,1.01998 -0.32963,0.45405 -0.73968,0.83823 -1.14256,1.22451 -0.51575,0.49451 -1.02483,0.99814 -1.48797,1.54516 -0.71816,0.8482 -1.32258,1.7984 -1.79083,2.81527"
         id="path2" /></g><g
       id="g1"
       transform="matrix(0.49999989,0,0,0.49999989,102.68749,139.33285)"
       style="display:none;fill:#124140;fill-opacity:1"
       inkscape:label="Club"><path
         id="rect4124-6-6"
         style="fill:#124140;fill-opacity:1;stroke-width:0.081756"
         d="m 12.160672,24.477777 h 1.488789 v 11.182637 h -1.488789 z" /><path
         inkscape:connector-curvature="0"
         id="path3979-1-6-1-1"
         d="m 21.086626,28.027499 c 1.172347,2.109531 0.412133,4.769751 -1.697966,5.941772 -2.1101,1.172021 -4.771035,0.412021 -5.943363,-1.697509 -0.312231,-0.561817 -0.496633,-1.185576 -0.539399,-1.82607 -0.163136,2.408423 -2.248246,4.227482 -4.6565886,4.063728 -2.4083211,-0.163757 -4.2278612,-2.24832 -4.0640636,-4.656003 0.1637977,-2.407679 2.2489257,-4.226742 4.6572499,-4.062985 0.6322462,0.04299 1.2475733,0.222911 1.8112983,0.527741 -2.0639302,-1.237834 -2.7394312,-3.920807 -1.500817,-5.992135 1.238617,-2.071329 3.922308,-2.746647 5.994198,-1.508366 2.071872,1.238283 2.747376,3.921253 1.508759,5.992582 -0.372668,0.623226 -0.894829,1.143781 -1.515955,1.517175 2.113383,-1.169461 4.774321,-0.40946 5.946647,1.70007 z"
         style="fill:#124140;fill-opacity:1;stroke:none;stroke-width:0.0555539"
         sodipodi:nodetypes="ssscssscssscs" /></g><path
       inkscape:export-ydpi="95.969437"
       inkscape:export-xdpi="95.969437"
       inkscape:export-filename="D:\DAN\Documents\Projects\Playing Cards\test.png"
       inkscape:connector-curvature="0"
       id="path4884-1-5"
       d="m 100.40939,157.16305 4.36562,-4.3656 -4.36562,-4.36563 -4.36563,4.36563 z"
       style="display:none;fill:#f5efd5;fill-opacity:1;stroke:none;stroke-width:0.154316"
       inkscape:label="Diamond" /></g></svg>
