<?xml version="1.0" encoding="UTF-8" standalone="no"?>
<!-- Created with Inkscape (http://www.inkscape.org/) -->

<svg
   width="17.462481mm"
   height="17.462749mm"
   viewBox="0 0 17.462481 17.462749"
   version="1.1"
   id="svg1"
   inkscape:version="1.4.2 (f4327f4, 2025-05-13)"
   sodipodi:docname="Spade.svg"
   xmlns:inkscape="http://www.inkscape.org/namespaces/inkscape"
   xmlns:sodipodi="http://sodipodi.sourceforge.net/DTD/sodipodi-0.dtd"
   xmlns="http://www.w3.org/2000/svg"
   xmlns:svg="http://www.w3.org/2000/svg">
  <sodipodi:namedview
     id="namedview1"
     pagecolor="#ffffff"
     bordercolor="#000000"
     borderopacity="0.25"
     inkscape:showpageshadow="2"
     inkscape:pageopacity="0.0"
     inkscape:pagecheckerboard="0"
     inkscape:deskcolor="#d1d1d1"
     inkscape:document-units="mm"
     inkscape:zoom="0.71891835"
     inkscape:cx="33.383485"
     inkscape:cy="32.687996"
     inkscape:window-width="1920"
     inkscape:window-height="1009"
     inkscape:window-x="1912"
     inkscape:window-y="-8"
     inkscape:window-maximized="1"
     inkscape:current-layer="layer1" />
  <defs
     id="defs1" />
  <g
     inkscape:label="Layer 1"
     inkscape:groupmode="layer"
     id="layer1"
     transform="translate(-96.04376,-139.7003)">
    <path
       style="display:inline;fill:#000000;stroke-width:1.57217"
       d="m 101.5569,157.11849 c -0.16458,-0.082 -0.23705,-0.21579 -0.21994,-0.40618 0.0173,-0.19209 0.12289,-0.28561 0.40844,-0.36159 0.44743,-0.11906 0.68145,-0.26122 1.03391,-0.62804 0.84308,-0.87747 1.3712,-2.01869 1.48028,-3.19871 l 0.0118,-0.12736 -0.14044,0.12736 c -0.35746,0.32415 -0.59306,0.49971 -0.92442,0.68884 -0.57089,0.32585 -1.24223,0.54389 -1.95159,0.63385 -0.32289,0.0409 -0.93737,0.0364 -1.24964,-0.009 -1.052358,-0.15395 -2.012281,-0.63924 -2.767654,-1.39923 -0.745369,-0.74992 -1.147462,-1.68113 -1.189824,-2.75547 -0.0196,-0.49713 0.0315,-0.9703 0.15833,-1.46595 0.390175,-1.52483 1.394467,-2.95957 3.146582,-4.49524 0.642322,-0.56297 0.940146,-0.80066 2.584846,-2.063 0.91154,-0.69962 1.40332,-1.08917 1.80905,-1.43299 0.15957,-0.13523 0.3367,-0.28116 0.39362,-0.3243 0.33893,-0.25689 0.87203,-0.26925 1.2277,-0.0285 0.0563,0.0381 0.26367,0.20459 0.46079,0.36992 0.55551,0.46593 0.81958,0.67388 2.25278,1.77397 1.60958,1.23547 2.24726,1.7755 3.00388,2.54387 0.84503,0.85816 1.39581,1.5998 1.80331,2.42821 0.32768,0.66616 0.50681,1.25726 0.597,1.96998 0.0313,0.24734 0.0259,0.86933 -0.01,1.13244 -0.10263,0.75624 -0.3954,1.43591 -0.87506,2.03147 -0.18358,0.22793 -0.55159,0.58233 -0.79157,0.76229 -0.69314,0.51977 -1.43885,0.83355 -2.26699,0.9539 -0.21959,0.0319 -0.29895,0.0348 -0.74239,0.0271 -0.43243,-0.007 -0.52749,-0.0143 -0.73641,-0.0519 -1.0666,-0.19224 -1.90659,-0.60249 -2.64009,-1.28941 -0.13168,-0.12331 -0.13226,-0.12363 -0.13226,-0.0719 0,0.0286 0.0118,0.14255 0.0262,0.25326 0.15506,1.19226 0.70997,2.29303 1.58067,3.13562 0.28978,0.28042 0.49302,0.396 0.88246,0.50182 0.21227,0.0577 0.26183,0.079 0.32928,0.14156 0.0777,0.0721 0.10631,0.14628 0.1068,0.27696 5.4e-4,0.14713 -0.0478,0.24607 -0.15778,0.32331 -0.0738,0.0518 -0.0748,0.052 -0.37546,0.0629 -0.16583,0.006 -1.59214,0.0118 -3.16959,0.0127 l -2.86809,0.002 z"
       id="path1-8" />
  </g>
</svg>
