<?xml version="1.0" encoding="UTF-8" standalone="no"?>
<!-- Created with Inkscape (http://www.inkscape.org/) -->

<svg
   version="1.1"
   id="svg1"
   width="1024"
   height="1024"
   viewBox="0 0 1024 1024"
   sodipodi:docname="Spade.svg"
   inkscape:version="1.4.2 (f4327f4, 2025-05-13)"
   inkscape:export-filename="Spade.png"
   inkscape:export-xdpi="96"
   inkscape:export-ydpi="96"
   xmlns:inkscape="http://www.inkscape.org/namespaces/inkscape"
   xmlns:sodipodi="http://sodipodi.sourceforge.net/DTD/sodipodi-0.dtd"
   xmlns:xlink="http://www.w3.org/1999/xlink"
   xmlns="http://www.w3.org/2000/svg"
   xmlns:svg="http://www.w3.org/2000/svg">
  <defs
     id="defs1">
    <clipPath
       clipPathUnits="userSpaceOnUse"
       id="clipPath4">
      <use
         x="0"
         y="0"
         xlink:href="#g3"
         id="use4" />
    </clipPath>
  </defs>
  <sodipodi:namedview
     id="namedview1"
     pagecolor="#ffffff"
     bordercolor="#000000"
     borderopacity="0.25"
     inkscape:showpageshadow="2"
     inkscape:pageopacity="0.0"
     inkscape:pagecheckerboard="0"
     inkscape:deskcolor="#d1d1d1"
     showgrid="false"
     inkscape:zoom="0.3535534"
     inkscape:cx="502.0458"
     inkscape:cy="321.02647"
     inkscape:window-width="1920"
     inkscape:window-height="1009"
     inkscape:window-x="1912"
     inkscape:window-y="-8"
     inkscape:window-maximized="1"
     inkscape:current-layer="g1" />
  <g
     inkscape:groupmode="layer"
     inkscape:label="Image"
     id="g1"
     transform="translate(-131.25493,-86.386665)">
    <g
       id="g4"
       clip-path="url(#clipPath4)"
       transform="matrix(25.599995,0,0,25.599999,-3228.8718,-2125.1122)">
      <g
         inkscape:label="Clip"
         id="g3">
        <path
           style="fill:#000000;stroke-width:0.275877"
           d="m 143.9034,126.31378 c -0.20257,-0.0883 -0.36067,-0.23267 -0.46148,-0.42164 -0.0691,-0.12952 -0.0753,-0.16473 -0.0753,-0.42769 0,-0.27885 0.003,-0.29088 0.0922,-0.4433 0.16245,-0.27584 0.35547,-0.39176 0.83042,-0.49878 0.59741,-0.13471 1.15024,-0.3781 1.58596,-0.69846 0.658,-0.48382 1.64987,-1.61886 2.30168,-2.63397 1.06051,-1.65164 1.73582,-3.61235 1.87847,-5.45403 l 0.0191,-0.24483 -0.48394,0.44606 c -0.53533,0.49343 -1.02053,0.86313 -1.59401,1.21459 -1.60966,0.98644 -3.44092,1.56476 -5.41394,1.70972 -0.49988,0.0367 -1.55576,0.0164 -1.99104,-0.0384 -2.33172,-0.29304 -4.47109,-1.27809 -6.2003,-2.85485 -1.81818,-1.65787 -2.85212,-3.69386 -3.10107,-6.10645 -0.0567,-0.54904 -0.0425,-1.86859 0.0257,-2.39274 0.52994,-4.07396 2.94297,-7.883353 7.53258,-11.891455 1.48694,-1.298534 2.5614,-2.157586 5.54713,-4.434978 2.51735,-1.920138 3.71298,-2.871163 4.88701,-3.887252 0.48629,-0.420865 0.63335,-0.527547 0.89234,-0.647375 0.36096,-0.167007 0.53385,-0.205129 0.98935,-0.218151 0.45204,-0.0129 0.61213,0.01037 0.98114,0.142414 0.30731,0.110005 0.5878,0.304322 1.20405,0.83415 1.25453,1.078598 2.18956,1.818132 5.42287,4.288987 2.07815,1.588115 3.11048,2.407814 4.22368,3.353711 3.96539,3.369491 6.32236,6.389659 7.48697,9.593669 0.45567,1.25362 0.69923,2.42858 0.7582,3.65745 0.0945,1.972 -0.29554,3.71925 -1.18023,5.28584 -1.4995,2.65524 -4.455,4.6714 -7.61997,5.19813 -0.65416,0.10877 -0.91784,0.12784 -1.77341,0.127 -0.8658,-7.9e-4 -1.18877,-0.0261 -1.93586,-0.15186 -1.90282,-0.32047 -3.69063,-1.08496 -5.15775,-2.20551 -0.14903,-0.11368 -0.46998,-0.39183 -0.71345,-0.61799 l -0.4427,-0.41122 0.0177,0.17321 c 0.0862,0.84738 0.17638,1.376 0.34174,2.00514 0.5387,2.04937 1.53257,3.82269 3.034,5.41345 0.79803,0.84549 1.41903,1.22066 2.39094,1.44434 0.38579,0.0887 0.54712,0.16342 0.70681,0.3269 0.16462,0.16854 0.23523,0.3519 0.23748,0.61661 0.003,0.34207 -0.13164,0.60196 -0.39948,0.77159 -0.2572,0.16292 0.35657,0.15066 -7.51158,0.15066 l -7.16467,-3e-5 z"
           id="path3" />
      </g>
    </g>
  </g>
</svg>
