<?xml version="1.0" encoding="UTF-8" standalone="no"?>
<!-- Created with Inkscape (http://www.inkscape.org/) -->

<svg
   width="90"
   height="135"
   viewBox="0 0 23.8125 35.71875"
   version="1.1"
   id="svg1"
   inkscape:version="1.4.2 (f4327f4, 2025-05-13)"
   sodipodi:docname="10-Spade.svg"
   inkscape:export-filename="..\10-Spade.png"
   inkscape:export-xdpi="96"
   inkscape:export-ydpi="96"
   xmlns:inkscape="http://www.inkscape.org/namespaces/inkscape"
   xmlns:sodipodi="http://sodipodi.sourceforge.net/DTD/sodipodi-0.dtd"
   xmlns="http://www.w3.org/2000/svg"
   xmlns:svg="http://www.w3.org/2000/svg">
  <sodipodi:namedview
     id="namedview1"
     pagecolor="#ffffff"
     bordercolor="#000000"
     borderopacity="0.25"
     inkscape:showpageshadow="2"
     inkscape:pageopacity="0.0"
     inkscape:pagecheckerboard="0"
     inkscape:deskcolor="#d1d1d1"
     inkscape:document-units="px"
     inkscape:zoom="2.8284271"
     inkscape:cx="42.426407"
     inkscape:cy="69.119688"
     inkscape:window-width="1920"
     inkscape:window-height="1009"
     inkscape:window-x="1912"
     inkscape:window-y="-8"
     inkscape:window-maximized="1"
     inkscape:current-layer="layer2"
     inkscape:export-bgcolor="#ffffff00" />
  <defs
     id="defs1" />
  <g
     inkscape:groupmode="layer"
     id="layer2"
     inkscape:label="Background">
    <rect
       style="fill:#ffffff;stroke:#000000;stroke-width:0.783777;stroke-dasharray:none;stroke-opacity:1"
       id="rect1"
       width="23.028723"
       height="34.934975"
       x="0.39188856"
       y="0.39188856"
       rx="1.646103" />
  </g>
  <g
     inkscape:label="Layer 1"
     inkscape:groupmode="layer"
     id="layer1"
     transform="translate(-1,-1)">
    <path
       d="M 123.79798,22.081783 H 84.179358 V -160.33615 q -22.220881,24.97696 -51.331958,36.6903 v -43.925 q 16.53647,-6.71794 34.278724,-23.94343 17.742253,-17.39774 24.632449,-39.96314 h 32.039407 z"
       id="text1"
       style="font-weight:bold;font-stretch:condensed;font-size:352.778px;font-family:Arial;-inkscape-font-specification:'Arial, Bold Condensed';white-space:pre;inline-size:297.107;stroke-width:0.264583"
       transform="matrix(0.04385585,0,0,0.04400543,0.39870546,12.244597)"
       aria-label="1" />
    <path
       d="m 89.347004,-231.47742 q 30.144606,0 48.748136,28.76657 18.60353,28.59431 18.60353,100.25235 0,71.485777 -18.60353,100.2523438 -18.60353,28.5943122 -48.575881,28.5943122 -30.144606,0 -48.748134,-28.4220573 Q 22.167597,-30.455958 22.167597,-102.97527 q 0,-71.14127 18.603528,-99.73558 18.603528,-28.76657 48.575879,-28.76657 z m 0,40.13539 q -11.713332,0 -18.775783,15.50294 -6.890195,15.50294 -6.890195,73.38059 0,57.877641 6.890195,73.380581 7.062451,15.330685 18.775783,15.330685 11.885586,0 18.775786,-15.50294 6.89019,-15.50294 6.89019,-73.208326 0,-57.87765 -6.89019,-73.38059 -6.8902,-15.50294 -18.775786,-15.50294 z"
       id="text1-8"
       style="font-weight:bold;font-stretch:condensed;font-size:352.778px;font-family:Arial;-inkscape-font-specification:'Arial, Bold Condensed';white-space:pre;inline-size:297.107;stroke-width:0.264583"
       transform="matrix(0.04385585,0,0,0.04400543,5.6903724,12.244597)"
       aria-label="0" />
    <path
       style="fill:#000000;stroke-width:1.00047"
       d="m 9.688144,35.616199 c -0.1645806,-0.08196 -0.2370449,-0.215791 -0.2199326,-0.406177 0.017265,-0.192091 0.1228939,-0.285602 0.408439,-0.361585 0.4474296,-0.11906 0.6814506,-0.261213 1.0339026,-0.628038 0.843083,-0.877459 1.371207,-2.018662 1.48028,-3.198677 l 0.01177,-0.127359 -0.140445,0.127359 c -0.357459,0.324149 -0.593059,0.499708 -0.924418,0.688837 -0.570894,0.325847 -1.242232,0.543886 -1.9515863,0.633844 -0.322895,0.04095 -0.9373762,0.03638 -1.2496434,-0.0093 C 7.0841537,32.181159 6.124231,31.69586 5.3688571,30.935881 4.623518,30.185998 4.2214254,29.254803 4.1790624,28.180469 c -0.019602,-0.49712 0.031503,-0.970286 0.1583314,-1.465934 0.3901751,-1.524812 1.394467,-2.959538 3.1465819,-4.49519 0.6423227,-0.562967 0.9401424,-0.800659 2.5848403,-2.062977 0.911542,-0.699615 1.403326,-1.089165 1.809052,-1.432981 0.159573,-0.135223 0.336704,-0.281158 0.393626,-0.3243 0.33893,-0.25688 0.872026,-0.269247 1.227694,-0.02847 0.05632,0.03813 0.263678,0.204589 0.460796,0.36992 0.555508,0.465925 0.819583,0.67387 2.252782,1.773947 1.609576,1.235458 2.24726,1.775484 3.003881,2.543851 0.84503,0.85815 1.395808,1.599784 1.803302,2.428181 0.327683,0.666151 0.506816,1.257247 0.597,1.969962 0.03129,0.247335 0.02592,0.869317 -0.0098,1.13243 -0.102629,0.756233 -0.395399,1.435897 -0.875061,2.031447 -0.183577,0.22793 -0.551585,0.582322 -0.791569,0.76228 -0.693134,0.519768 -1.438846,0.833544 -2.266987,0.953891 -0.219587,0.03191 -0.298947,0.03481 -0.742394,0.02705 -0.432428,-0.0076 -0.527489,-0.01426 -0.736402,-0.05191 -1.066603,-0.192236 -1.906596,-0.602479 -2.640098,-1.289393 -0.131685,-0.123322 -0.132265,-0.123637 -0.132265,-0.07189 0,0.02858 0.01178,0.142556 0.02618,0.253261 0.15507,1.192245 0.709972,2.293007 1.580674,3.135583 0.28978,0.280419 0.493021,0.395994 0.882459,0.501818 0.21227,0.05768 0.261834,0.07899 0.329279,0.141568 0.07771,0.0721 0.106315,0.146282 0.106794,0.276955 5.37e-4,0.147122 -0.04775,0.246067 -0.15778,0.323306 -0.07378,0.05179 -0.07477,0.05196 -0.375464,0.06295 -0.165821,0.0061 -1.592134,0.01182 -3.169585,0.01279 l -2.8680917,0.0018 z"
       id="path1" />
    <path
       style="fill:#000000;stroke-width:1.00047"
       d="m 16.414615,13.142793 c -0.104733,-0.05216 -0.150847,-0.137324 -0.139957,-0.258478 0.01099,-0.122242 0.0782,-0.181749 0.259915,-0.230102 0.284728,-0.07576 0.43365,-0.166229 0.657939,-0.399664 0.536506,-0.558388 0.872586,-1.284615 0.941996,-2.03554 l 0.0075,-0.08104 -0.08937,0.08104 c -0.227474,0.206278 -0.377402,0.317999 -0.588265,0.438355 -0.363297,0.207358 -0.790512,0.346113 -1.241919,0.403358 -0.205479,0.02605 -0.596513,0.02314 -0.795228,-0.0059 -0.669682,-0.09797 -1.280542,-0.40679 -1.761234,-0.890418 -0.47432,-0.4772229 -0.730197,-1.0698068 -0.757155,-1.7534799 -0.01248,-0.3163519 0.02005,-0.6174604 0.100756,-0.9328756 0.248293,-0.9703436 0.887388,-1.8833591 2.00237,-2.8606006 0.40875,-0.3582553 0.598272,-0.509515 1.644899,-1.3128156 0.580071,-0.4452132 0.893024,-0.6931113 1.151214,-0.9119051 0.101546,-0.086051 0.214266,-0.1789199 0.250489,-0.2063742 0.215683,-0.163471 0.554925,-0.1713406 0.78126,-0.018123 0.03584,0.024262 0.167794,0.1301942 0.293233,0.2354057 0.353504,0.2965004 0.521552,0.4288302 1.433588,1.1288854 1.024275,0.7862078 1.430074,1.1298638 1.91156,1.6188287 0.537747,0.5460998 0.888242,1.0180532 1.147556,1.5452197 0.208525,0.423918 0.322518,0.8000732 0.379909,1.2536231 0.01991,0.1573967 0.01649,0.5532072 -0.0062,0.7206443 -0.06531,0.4812433 -0.251618,0.9137604 -0.556857,1.2927503 -0.116822,0.1450468 -0.351008,0.3705708 -0.503725,0.4850908 -0.441086,0.330764 -0.91563,0.530442 -1.442629,0.607027 -0.139736,0.0203 -0.190238,0.02214 -0.472432,0.01721 -0.275181,-0.0048 -0.335674,-0.0091 -0.468619,-0.03304 -0.678748,-0.122333 -1.213288,-0.383399 -1.680062,-0.82053 -0.08379,-0.07847 -0.08417,-0.07867 -0.08417,-0.04575 0,0.01819 0.0075,0.09071 0.01666,0.161167 0.09868,0.758708 0.451802,1.459199 1.005884,1.995389 0.184405,0.17845 0.313742,0.251999 0.561565,0.319341 0.135081,0.03671 0.166622,0.05027 0.209541,0.09009 0.04945,0.04589 0.06765,0.09309 0.06796,0.176247 3.43e-4,0.09363 -0.03038,0.156589 -0.100404,0.205742 -0.04695,0.03295 -0.04758,0.03306 -0.238932,0.04006 -0.105523,0.0039 -1.013176,0.0075 -2.017008,0.0081 l -1.825149,0.0011 z"
       id="path2" />
  </g>
</svg>
