<?xml version="1.0" encoding="UTF-8" standalone="no"?>
<!-- Created with Inkscape (http://www.inkscape.org/) -->

<svg
   width="90"
   height="135"
   viewBox="0 0 23.8125 35.71875"
   version="1.1"
   id="svg1"
   inkscape:version="1.4.2 (f4327f4, 2025-05-13)"
   sodipodi:docname="K-Club.svg"
   inkscape:export-filename="..\K-Spade.png"
   inkscape:export-xdpi="96"
   inkscape:export-ydpi="96"
   xmlns:inkscape="http://www.inkscape.org/namespaces/inkscape"
   xmlns:sodipodi="http://sodipodi.sourceforge.net/DTD/sodipodi-0.dtd"
   xmlns="http://www.w3.org/2000/svg"
   xmlns:svg="http://www.w3.org/2000/svg">
  <sodipodi:namedview
     id="namedview1"
     pagecolor="#ffffff"
     bordercolor="#000000"
     borderopacity="0.25"
     inkscape:showpageshadow="2"
     inkscape:pageopacity="0.0"
     inkscape:pagecheckerboard="0"
     inkscape:deskcolor="#d1d1d1"
     inkscape:document-units="px"
     inkscape:zoom="45.254834"
     inkscape:cx="86.686873"
     inkscape:cy="48.757223"
     inkscape:window-width="1920"
     inkscape:window-height="1009"
     inkscape:window-x="1912"
     inkscape:window-y="-8"
     inkscape:window-maximized="1"
     inkscape:current-layer="layer2"
     inkscape:export-bgcolor="#ffffff00" />
  <defs
     id="defs1" />
  <g
     inkscape:groupmode="layer"
     id="layer2"
     inkscape:label="Background">
    <rect
       style="fill:#ffffff;stroke:#000000;stroke-width:0.783777;stroke-dasharray:none;stroke-opacity:1"
       id="rect1"
       width="23.028723"
       height="34.934975"
       x="0.39188856"
       y="0.39188856"
       rx="1.646103" />
  </g>
  <g
     inkscape:label="Layer 1"
     inkscape:groupmode="layer"
     id="layer1"
     transform="translate(-1,-1)">
    <path
       d="M 31.469361,22.081783 V -230.44389 h 41.685684 v 112.13794 L 157.7322,-230.44389 h 56.32734 l -78.03146,98.35755 82.16558,154.168123 H 164.10563 L 107.08926,-96.429581 73.155045,-54.227133 v 76.308916 z"
       id="text1"
       style="font-weight:bold;font-stretch:condensed;font-size:352.778px;font-family:Arial;-inkscape-font-specification:'Arial, Bold Condensed';white-space:pre;inline-size:297.107;stroke-width:0.264583"
       transform="matrix(0.04385585,0,0,0.04400543,2.0309922,12.244597)"
       aria-label="K" />
    <g
       id="g2"
       transform="matrix(0.3091396,0,0,0.30812662,-10.832968,-245.88023)">
      <rect
         style="fill:#000000;fill-opacity:1;stroke:none;stroke-width:0.18"
         id="rect4124-6-6"
         width="4.8159122"
         height="16.757282"
         x="74.379471"
         y="896.96008" />
      <path
         inkscape:connector-curvature="0"
         id="path3979-1-6-1-1"
         d="m 103.25301,888.94536 c 3.79229,6.84631 1.33316,15.47984 -5.492554,19.28354 -6.82572,3.8037 -15.43327,1.33718 -19.2255,-5.50913 -1.01,-1.82333 -1.6065,-3.84769 -1.74484,-5.92636 -0.52771,7.81634 -7.27259,13.71995 -15.06306,13.1885 -7.7904,-0.53146 -13.67622,-7.29674 -13.14637,-15.11068 0.52985,-7.81393 7.27479,-13.71755 15.0652,-13.18609 2.04518,0.13952 4.03563,0.72344 5.85916,1.71274 -6.67637,-4.01729 -8.86147,-12.72466 -4.85482,-19.44699 4.00666,-6.72233 12.68782,-8.91402 19.38994,-4.89528 6.70206,4.01875 8.88717,12.72611 4.88051,19.44844 -1.2055,2.02263 -2.89458,3.71205 -4.90379,4.92387 6.83634,-3.79539 15.4439,-1.32887 19.236124,5.51744 z"
         style="fill:#000000;fill-opacity:1;stroke:none;stroke-width:0.18"
         sodipodi:nodetypes="ssscssscssscs" />
    </g>
    <g
       id="g2-1"
       transform="matrix(0.1967252,0,0,0.19608058,3.355725,-165.9914)">
      <rect
         style="fill:#000000;fill-opacity:1;stroke:none;stroke-width:0.18"
         id="rect4124-6-6-5"
         width="4.8159122"
         height="16.757282"
         x="74.379471"
         y="896.96008" />
      <path
         inkscape:connector-curvature="0"
         id="path3979-1-6-1-1-2"
         d="m 103.25301,888.94536 c 3.79229,6.84631 1.33316,15.47984 -5.492554,19.28354 -6.82572,3.8037 -15.43327,1.33718 -19.2255,-5.50913 -1.01,-1.82333 -1.6065,-3.84769 -1.74484,-5.92636 -0.52771,7.81634 -7.27259,13.71995 -15.06306,13.1885 -7.7904,-0.53146 -13.67622,-7.29674 -13.14637,-15.11068 0.52985,-7.81393 7.27479,-13.71755 15.0652,-13.18609 2.04518,0.13952 4.03563,0.72344 5.85916,1.71274 -6.67637,-4.01729 -8.86147,-12.72466 -4.85482,-19.44699 4.00666,-6.72233 12.68782,-8.91402 19.38994,-4.89528 6.70206,4.01875 8.88717,12.72611 4.88051,19.44844 -1.2055,2.02263 -2.89458,3.71205 -4.90379,4.92387 6.83634,-3.79539 15.4439,-1.32887 19.236124,5.51744 z"
         style="fill:#000000;fill-opacity:1;stroke:none;stroke-width:0.18"
         sodipodi:nodetypes="ssscssscssscs" />
    </g>
  </g>
</svg>
