<?xml version="1.0" encoding="UTF-8" standalone="no"?>
<!-- Created with Inkscape (http://www.inkscape.org/) -->

<svg
   width="90"
   height="135"
   viewBox="0 0 23.8125 35.71875"
   version="1.1"
   id="svg1"
   inkscape:version="1.4.2 (f4327f4, 2025-05-13)"
   sodipodi:docname="Joker-Red.svg"
   inkscape:export-filename="..\A-Club.png"
   inkscape:export-xdpi="96"
   inkscape:export-ydpi="96"
   xmlns:inkscape="http://www.inkscape.org/namespaces/inkscape"
   xmlns:sodipodi="http://sodipodi.sourceforge.net/DTD/sodipodi-0.dtd"
   xmlns="http://www.w3.org/2000/svg"
   xmlns:svg="http://www.w3.org/2000/svg">
  <sodipodi:namedview
     id="namedview1"
     pagecolor="#ffffff"
     bordercolor="#000000"
     borderopacity="0.25"
     inkscape:showpageshadow="2"
     inkscape:pageopacity="0.0"
     inkscape:pagecheckerboard="0"
     inkscape:deskcolor="#d1d1d1"
     inkscape:document-units="px"
     inkscape:zoom="1.4142136"
     inkscape:cx="-28.991378"
     inkscape:cy="-56.21499"
     inkscape:window-width="1920"
     inkscape:window-height="1009"
     inkscape:window-x="1912"
     inkscape:window-y="-8"
     inkscape:window-maximized="1"
     inkscape:current-layer="layer1"
     inkscape:export-bgcolor="#ffffff00" />
  <defs
     id="defs1" />
  <g
     inkscape:groupmode="layer"
     id="layer2"
     inkscape:label="Background">
    <rect
       style="fill:#ffffff;stroke:#000000;stroke-width:0.785481;stroke-dasharray:none;stroke-opacity:1"
       id="rect1"
       width="23.130083"
       height="34.93327"
       x="0.39274049"
       y="0.39274049"
       rx="1.6533483" />
  </g>
  <g
     inkscape:label="Layer 1"
     inkscape:groupmode="layer"
     id="layer1"
     transform="translate(-1,-1)">
    <path
       style="fill:#ff0000;stroke-width:0.037926;fill-opacity:1"
       d="M 3.1568798,31.369502 C 2.1492522,31.042598 2.0219654,29.677563 2.9545321,29.199515 c 0.1281682,-0.06571 0.2556159,-0.119456 0.2832194,-0.119456 0.064407,0 0.06397,-0.01695 -0.023331,-0.893971 -0.5865363,-5.892608 1.0936039,-8.506705 4.5521267,-7.082566 l 0.303456,0.124956 0.022361,-0.731752 C 8.1609062,18.253636 8.705105,16.882492 9.9164327,15.900872 10.894054,15.108643 11.484958,14.986676 14.39311,14.97685 l 1.238326,-0.0041 0.08978,-0.173623 c 0.412936,-0.798501 1.583212,-0.747642 2.013765,0.08753 l 0.09901,0.192064 1.49e-4,0.3073 c 2.54e-4,0.499609 -0.199296,0.83639 -0.624884,1.054552 l -0.228299,0.117037 h -0.249466 c -0.589672,0 -1.161496,-0.495059 -1.161496,-1.005574 v -0.06996 l -0.21531,6.49e-4 c -1.371809,0.0042 -2.600616,1.689611 -2.256599,3.095017 0.116342,0.475281 0.880908,1.760421 1.332158,2.239188 0.0077,0.0081 0.128172,-0.08843 0.267884,-0.214467 0.93612,-0.844568 1.860859,-1.418152 2.631798,-1.632418 l 0.318285,-0.08845 0.542958,0.0015 0.542958,0.0015 0.364717,0.128079 c 1.600046,0.561889 2.646382,1.998473 3.108019,4.267205 l 0.08988,0.441747 0.19186,0.02435 c 0.581073,0.07376 0.992894,0.546974 0.998401,1.147232 l 0.0026,0.288097 -0.09782,0.211269 c -0.117224,0.253174 -0.319201,0.466626 -0.553702,0.58516 l -0.172243,0.08707 -0.318285,-5.34e-4 -0.318286,-5.33e-4 -0.189604,-0.10211 c -0.694046,-0.373855 -0.843222,-1.264633 -0.31097,-1.856978 l 0.148369,-0.165117 -0.346258,-0.37155 c -0.859388,-0.922095 -1.707833,-1.376587 -2.577977,-1.380885 l -0.393176,-0.0019 -0.243395,0.118978 c -1.300793,0.635868 -1.990006,3.337731 -1.459027,5.719699 0.13479,0.604663 0.145797,0.568983 -0.180642,0.585545 -2.989528,0.151684 -3.999526,0.422337 -6.6404728,1.779475 l -0.435293,0.223657 -0.026197,-0.276404 C 9.3399643,29.970472 9.2659873,29.605951 9.1314254,29.137771 9.070706,28.9265 8.960048,28.537846 8.8855254,28.274093 8.5517513,27.09279 7.419443,25.731622 6.4966871,25.402428 l -0.2681636,-0.09566 -0.2626674,0.01751 C 5.5840596,25.349738 5.3247476,25.489767 4.952957,25.871255 L 4.6520675,26.179988 4.457837,26.568378 C 4.1472563,27.18942 3.9045258,28.069305 3.8280219,28.851417 l -0.024599,0.251423 0.151145,0.06992 c 1.2509418,0.57867 0.5094158,2.620895 -0.7976667,2.196839 z"
       id="path1" />
    <path
       d="m 4.4565305,3.3483288 h 0.868926 v 3.3183683 q 0,0.8045612 -0.1609119,1.1979023 -0.1609124,0.393341 -0.4827369,0.6043149 -0.3182487,0.2109739 -0.7866821,0.2109739 -0.6186182,0 -0.9690493,-0.425524 Q 2.5756452,7.8288408 2.5720693,6.9706425 L 3.3909339,6.8562158 q 0.014303,0.461282 0.1180023,0.6543763 0.1394572,0.2646115 0.4183718,0.2646115 0.2717629,0 0.4004927,-0.1895191 Q 4.4565305,7.3925897 4.4565305,6.7346376 Z M 6.0728048,6.001593 q 0,-0.9368669 0.2753387,-1.5411818 0.2789143,-0.6078907 0.725893,-0.9046844 0.4469782,-0.2967937 1.0834756,-0.2967937 0.9225635,0 1.501848,0.7044381 0.5828599,0.704438 0.5828599,2.0060393 0,1.3159044 -0.6150428,2.0561008 -0.5399497,0.6543769 -1.466089,0.6543769 -0.9332912,0 -1.4732413,-0.647225 Q 6.0728048,7.2924668 6.0728048,6.001593 Z M 6.9667617,5.965835 q 0,0.9046844 0.3432792,1.3588145 0.3432796,0.4505544 0.8510473,0.4505544 0.511343,0 0.8474712,-0.4469787 0.3361277,-0.4505544 0.3361277,-1.3802694 0,-0.911836 -0.3289763,-1.348087 -0.3254005,-0.436251 -0.8546226,-0.436251 -0.5292225,0 -0.8617745,0.4398268 -0.332552,0.4398268 -0.332552,1.3623904 z M 10.928778,8.5904926 V 3.3483288 h 0.865351 V 5.6761927 L 13.54986,3.3483288 h 1.169296 l -1.61985,2.0417976 1.70567,3.200366 h -1.12281 L 12.498567,6.1303228 11.794129,7.0064006 v 1.5840918 z m 4.326753,0 V 3.3483288 h 3.189638 v 0.8868053 h -2.324288 v 1.162144 h 2.1598 v 0.8832294 h -2.1598 v 1.4267552 h 2.402956 v 0.8832297 z m 4.004927,0 V 3.3483288 h 1.827248 q 0.700862,0 1.001232,0.1430331 0.300369,0.1394573 0.493464,0.4898884 0.193095,0.3468553 0.193095,0.8331679 0,0.6150423 -0.296794,0.9905043 -0.293218,0.3754619 -0.836744,0.4720092 0.278915,0.2002464 0.461282,0.4398269 0.182367,0.2360043 0.49704,0.8510469 l 0.522071,1.0226869 H 22.088938 L 21.459592,7.4498031 Q 21.119888,6.8311848 20.99831,6.6774243 20.876732,6.5200881 20.740851,6.4628748 20.604969,6.4020857 20.3046,6.4020857 h -0.178791 v 2.1884067 z m 0.865351,-3.0251504 h 0.643648 q 0.590012,0 0.750924,-0.050062 0.160912,-0.053637 0.261036,-0.2109739 0.100123,-0.1573364 0.100123,-0.4183718 0,-0.2503079 -0.100123,-0.4004927 Q 21.681293,4.3316812 21.509654,4.274468 21.388076,4.235134 20.805215,4.235134 h -0.679406 z"
       id="text2"
       style="font-weight:bold;font-stretch:condensed;font-size:15.4977px;font-family:Arial;-inkscape-font-specification:'Arial, Bold Condensed';white-space:pre;inline-size:53.7011;stroke:#000000;stroke-width:0.375079;fill:#ff0000;fill-opacity:1;stroke-opacity:0"
       aria-label="JOKER" />
  </g>
</svg>
