<?xml version="1.0" encoding="UTF-8" standalone="no"?>
<!-- Created with Inkscape (http://www.inkscape.org/) -->

<svg
   width="90"
   height="135"
   viewBox="0 0 23.8125 35.71875"
   version="1.1"
   id="svg1"
   inkscape:version="1.4.2 (f4327f4, 2025-05-13)"
   sodipodi:docname="2-Spade.svg"
   inkscape:export-filename="2-Spade2.svg"
   inkscape:export-xdpi="96"
   inkscape:export-ydpi="96"
   xmlns:inkscape="http://www.inkscape.org/namespaces/inkscape"
   xmlns:sodipodi="http://sodipodi.sourceforge.net/DTD/sodipodi-0.dtd"
   xmlns="http://www.w3.org/2000/svg"
   xmlns:svg="http://www.w3.org/2000/svg">
  <sodipodi:namedview
     id="namedview1"
     pagecolor="#ffffff"
     bordercolor="#000000"
     borderopacity="0.25"
     inkscape:showpageshadow="2"
     inkscape:pageopacity="0.0"
     inkscape:pagecheckerboard="0"
     inkscape:deskcolor="#d1d1d1"
     inkscape:document-units="px"
     inkscape:zoom="2.8284271"
     inkscape:cx="19.975767"
     inkscape:cy="58.86664"
     inkscape:window-width="1920"
     inkscape:window-height="1009"
     inkscape:window-x="1912"
     inkscape:window-y="-8"
     inkscape:window-maximized="1"
     inkscape:current-layer="layer1"
     inkscape:export-bgcolor="#ffffff00" />
  <defs
     id="defs1" />
  <g
     inkscape:groupmode="layer"
     id="layer2"
     inkscape:label="Background"
     style="display:inline">
    <rect
       style="display:inline;fill:#ffffff;stroke:#000000;stroke-width:0.785481;stroke-dasharray:none;stroke-opacity:1"
       id="rect1"
       width="23.130083"
       height="34.93327"
       x="1.3927405"
       y="1.3927405"
       rx="1.6533483"
       transform="translate(-1,-1)" />
  </g>
  <g
     inkscape:label="Layer 1"
     inkscape:groupmode="layer"
     id="layer1"
     transform="translate(-1,-1)"
     style="display:inline">
    <path
       d="m 10.293152,11.237896 v 1.978419 H 2.8520833 Q 2.9729535,12.094453 3.5773043,11.093873 4.181655,10.085713 5.9644898,8.4256603 7.3998227,7.0839737 7.7246613,6.6064242 8.1628158,5.9469509 8.1628158,5.3026383 q 0,-0.7125341 -0.3852736,-1.0915419 -0.3777195,-0.3865877 -1.0500595,-0.3865877 -0.6647859,0 -1.0576139,0.401748 -0.392828,0.401748 -0.4532631,1.3341065 L 3.101378,5.3481193 Q 3.2902376,3.5895241 4.2874164,2.8239291 5.2845952,2.0583336 6.7803632,2.0583336 q 1.6393014,0 2.5760453,0.886878 0.9367435,0.8868775 0.9367435,2.2058236 0,0.7504347 -0.271958,1.4326483 Q 9.7567909,7.2583171 9.1751031,8.0011718 8.7898295,8.4938816 7.7850964,9.4186599 6.7803632,10.343438 6.5084056,10.646644 6.244002,10.94985 6.0778056,11.237896 Z"
       id="text1"
       style="font-weight:bold;font-size:352.778px;font-family:Arial;-inkscape-font-specification:'Arial, Bold';white-space:pre;inline-size:297.107;stroke-width:0.0116233"
       aria-label="2" />
    <path
       style="fill:#000000;stroke-width:1.00047"
       d="m 16.414615,13.142793 c -0.104733,-0.05216 -0.150847,-0.137324 -0.139957,-0.258478 0.01099,-0.122242 0.0782,-0.181749 0.259915,-0.230102 0.284728,-0.07576 0.43365,-0.166229 0.657939,-0.399664 0.536506,-0.558388 0.872586,-1.284615 0.941996,-2.03554 l 0.0075,-0.08104 -0.08937,0.08104 c -0.227474,0.206278 -0.377402,0.317999 -0.588265,0.438355 -0.363297,0.207358 -0.790512,0.346113 -1.241919,0.403358 -0.205479,0.02605 -0.596513,0.02314 -0.795228,-0.0059 -0.669682,-0.09797 -1.280542,-0.40679 -1.761234,-0.890418 -0.47432,-0.4772229 -0.730197,-1.0698068 -0.757155,-1.7534799 -0.01248,-0.3163519 0.02005,-0.6174604 0.100756,-0.9328756 0.248293,-0.9703436 0.887388,-1.8833591 2.00237,-2.8606006 0.40875,-0.3582553 0.598272,-0.509515 1.644899,-1.3128156 0.580071,-0.4452132 0.893024,-0.6931113 1.151214,-0.9119051 0.101546,-0.086051 0.214266,-0.1789199 0.250489,-0.2063742 0.215683,-0.163471 0.554925,-0.1713406 0.78126,-0.018123 0.03584,0.024262 0.167794,0.1301942 0.293233,0.2354057 0.353504,0.2965004 0.521552,0.4288302 1.433588,1.1288854 1.024275,0.7862078 1.430074,1.1298638 1.91156,1.6188287 0.537747,0.5460998 0.888242,1.0180532 1.147556,1.5452197 0.208525,0.423918 0.322518,0.8000732 0.379909,1.2536231 0.01991,0.1573967 0.01649,0.5532072 -0.0062,0.7206443 -0.06531,0.4812433 -0.251618,0.9137604 -0.556857,1.2927503 -0.116822,0.1450468 -0.351008,0.3705708 -0.503725,0.4850908 -0.441086,0.330764 -0.91563,0.530442 -1.442629,0.607027 -0.139736,0.0203 -0.190238,0.02214 -0.472432,0.01721 -0.275181,-0.0048 -0.335674,-0.0091 -0.468619,-0.03304 -0.678748,-0.122333 -1.213288,-0.383399 -1.680062,-0.82053 -0.08379,-0.07847 -0.08417,-0.07867 -0.08417,-0.04575 0,0.01819 0.0075,0.09071 0.01666,0.161167 0.09868,0.758708 0.451802,1.459199 1.005884,1.995389 0.184405,0.17845 0.313742,0.251999 0.561565,0.319341 0.135081,0.03671 0.166622,0.05027 0.209541,0.09009 0.04945,0.04589 0.06765,0.09309 0.06796,0.176247 3.43e-4,0.09363 -0.03038,0.156589 -0.100404,0.205742 -0.04695,0.03295 -0.04758,0.03306 -0.238932,0.04006 -0.105523,0.0039 -1.013176,0.0075 -2.017008,0.0081 l -1.825149,0.0011 z"
       id="path1" />
    <path
       style="display:inline;fill:#000000;stroke-width:1.57217"
       d="m 9.6881469,35.616401 c -0.16458,-0.08196 -0.237045,-0.215795 -0.219933,-0.406181 0.01727,-0.192094 0.122887,-0.285606 0.408439,-0.36159 0.4474291,-0.119055 0.6814501,-0.261216 1.0339041,-0.628044 0.843081,-0.877468 1.371206,-2.018682 1.480279,-3.19871 l 0.01179,-0.127355 -0.140438,0.127355 c -0.357459,0.324153 -0.59306,0.499715 -0.924417,0.688844 -0.570896,0.325851 -1.242233,0.543894 -1.9515871,0.633851 -0.322896,0.04095 -0.937377,0.03637 -1.249643,-0.0093 -1.052359,-0.153947 -2.012282,-0.639243 -2.767655,-1.399229 -0.745369,-0.749924 -1.147462,-1.681129 -1.189824,-2.755473 -0.0196,-0.497126 0.0315,-0.970296 0.15833,-1.465949 0.390175,-1.524829 1.394467,-2.959569 3.146582,-4.495236 0.642322,-0.562974 0.940142,-0.800668 2.5848411,-2.063 0.91154,-0.699621 1.403325,-1.089175 1.809051,-1.432995 0.159573,-0.135228 0.336704,-0.28116 0.393626,-0.324302 0.338931,-0.256884 0.872026,-0.26925 1.227694,-0.02848 0.05632,0.03813 0.263678,0.204591 0.460796,0.369924 0.555507,0.465929 0.819582,0.673877 2.252781,1.773965 1.609576,1.23547 2.24726,1.775502 3.00388,2.543877 0.845031,0.858158 1.395809,1.599798 1.803303,2.428205 0.327683,0.666159 0.506814,1.25726 0.597,1.969982 0.0313,0.247337 0.02592,0.869327 -0.0098,1.132443 -0.102631,0.75624 -0.3954,1.43591 -0.875061,2.031466 -0.183577,0.227932 -0.551585,0.582328 -0.791569,0.762288 -0.693134,0.519772 -1.438846,0.833552 -2.266987,0.9539 -0.219586,0.0319 -0.298946,0.0348 -0.742393,0.02705 -0.432428,-0.0075 -0.527489,-0.0143 -0.736402,-0.05191 -1.066604,-0.192237 -1.906596,-0.602485 -2.640098,-1.289407 -0.131678,-0.123315 -0.13226,-0.123629 -0.13226,-0.07189 0,0.02859 0.0118,0.142553 0.02618,0.253264 0.155064,1.192256 0.709974,2.293029 1.580675,3.135615 0.289779,0.280422 0.493023,0.395998 0.882459,0.501822 0.212271,0.05768 0.261834,0.07899 0.329279,0.141562 0.07771,0.07211 0.106312,0.146278 0.106799,0.276959 5.4e-4,0.147128 -0.04775,0.24607 -0.157778,0.323309 -0.07377,0.05179 -0.07476,0.05196 -0.375465,0.06294 -0.165821,0.0061 -1.592133,0.01179 -3.169584,0.01273 l -2.8680921,0.0017 z"
       id="path1-8" />
  </g>
</svg>
